<svg enable-background="new 0 0 329.249 329.249" viewBox="0 0 329.249 329.249" xmlns="http://www.w3.org/2000/svg"><path d="m247.814 233.696c-18.667-6.681-51.458-11.736-51.458-81.376h-29.23-5.002-29.23c0 69.64-32.791 74.695-51.458 81.376 0 47.368 68.832 48.824 80.688 53.239v1.537s.922-.188 2.501-.68c1.579.492 2.501.68 2.501.68v-1.537c11.855-4.414 80.688-5.871 80.688-53.239z" fill="#f3d8b6"/><path d="m196.356 152.321h-29.23-2.501v135.472c1.579.492 2.501.68 2.501.68v-1.537c11.856-4.414 80.688-5.871 80.688-53.238-18.667-6.683-51.458-11.737-51.458-81.377z" fill="#eec8a2"/><path d="m164.627 174.483c-27.454 0-48.409-23.119-57.799-40.456s-15.888-79.445 4.34-106.897c19.808-26.883 53.459-13.838 53.459-13.838s33.649-13.045 53.458 13.838c20.226 27.452 13.726 89.56 4.335 106.897-9.392 17.337-30.345 40.456-57.793 40.456z" fill="#f3dbc4"/><path d="m218.085 27.13c-19.81-26.883-53.458-13.838-53.458-13.838h-.002v161.192h.002c27.449 0 48.401-23.119 57.794-40.456 9.39-17.338 15.89-79.445-4.336-106.898z" fill="#edceae"/><ellipse cx="226.798" cy="106.771" fill="#edceae" rx="17.187" ry="10.048" transform="matrix(.3543 -.9351 .9351 .3543 46.5967 281.0264)"/><ellipse cx="102.447" cy="106.778" fill="#f3dbc4" rx="17.187" ry="10.048" transform="matrix(.3543 .9351 -.9351 .3543 166.0001 -26.8553)"/><path d="m284.607 288.568v40.681h-239.964v-40.681c0-30.431 17.377-56.963 40.605-70.913 6.043-3.641 19.69-7.43 26.844-9.196 5.953-1.488 53.438 22.729 53.438 22.729s48.674-23.218 54.627-21.729c7.154 1.766 17.802 4.554 23.844 8.196 23.229 13.95 40.606 40.482 40.606 70.913z" fill="#b7cae9"/><path d="m244.002 217.655c-6.043-3.641-16.69-6.429-23.844-8.196-5.953-1.488-54.627 21.729-54.627 21.729s-.321-.164-.906-.459v98.52h119.982v-40.681c0-30.431-17.378-56.963-40.605-70.913z" fill="#96b3d4"/><path d="m186.292 235.806-21.667-6.833-21.667 6.833 14.314 10.992-8.98 82.451h32.666l-8.98-82.451z" fill="#494857"/><path d="m186.292 235.806-21.667-6.833v100.276h16.333l-8.98-82.45z" fill="#33333f"/><path d="m212.792 204.681-48.167 23.441-48.167-23.441c-11.5 5.5 10.396 38.436 14.833 36.833 10.963-3.96 33.334-10.329 33.334-10.329s22.371 6.369 33.334 10.329c4.437 1.604 26.333-31.333 14.833-36.833z" fill="#dedde0"/><path d="m212.792 204.681-48.167 23.441v3.063s22.371 6.369 33.334 10.329c4.437 1.604 26.333-31.333 14.833-36.833z" fill="#dedde0"/><path d="m206.619 97.84h-27.689c-1.185 0-2.356.243-3.431.713l-10.874 3.873-10.874-3.873c-1.075-.47-2.246-.713-3.431-.713h-27.688c-5.509 0-7.411 9.474-7.411 9.474 0 12.532 9.191 22.692 23.756 22.692 8.882 0 17.409-9.44 22.649-17.081h6c5.24 7.641 13.768 17.081 22.649 17.081 14.565 0 23.756-10.16 23.756-22.692-.001 0-1.903-9.474-7.412-9.474z" fill="#a7b8d4"/><path d="m206.619 97.84h-27.689c-1.185 0-2.356.243-3.431.713l-10.874 3.873v10.5h3c5.24 7.641 13.768 17.081 22.649 17.081 14.565 0 23.756-10.16 23.756-22.692 0-.001-1.902-9.475-7.411-9.475z" fill="#8aa4c2"/><path d="m221.773 22.976c-2.16.019-25.469-13.121-41.382-16.355-18.766-3.814-18.777-.529-26.02 1.516-29.41-9.014-52.972-15.012-51.927 7.003 1.759 37.07-9.345 65.989-4.863 78.938s8.466 23.407 8.466 23.407.996 3.565 2.988-16.854-4.579-42.372 11.137-40.379c15.716 1.992 10.785 14.805 44.436 14.805 33.391 0 28.719-12.813 44.436-14.805 15.716-1.992 9.145 19.96 11.137 40.379s2.988 16.854 2.988 16.854 3.984-10.458 8.466-23.407c4.484-12.949 9.49-71.272-9.862-71.102z" fill="#545465"/><path d="m221.773 22.976c-2.16.019-25.469-13.121-41.382-16.355-7.986-1.624-12.57-1.958-15.766-1.653v70.088c33.372-.004 28.706-12.813 44.419-14.804 15.716-1.992 9.145 19.96 11.137 40.379s2.988 16.854 2.988 16.854 3.984-10.459 8.466-23.407c4.484-12.949 9.49-71.271-9.862-71.102z" fill="#494857"/><ellipse cx="102.447" cy="106.778" fill="#f3dbc4" rx="17.187" ry="10.048" transform="matrix(.3543 .9351 -.9351 .3543 166.0001 -26.8553)"/><ellipse cx="226.798" cy="106.771" fill="#edceae" rx="17.187" ry="10.048" transform="matrix(.3543 -.9351 .9351 .3543 46.5967 281.0264)"/></svg>