<svg enable-background="new 0 0 122.88 99.54" viewBox="0 0 122.88 99.54" xmlns="http://www.w3.org/2000/svg"><path d="m73.12 0c6.73 0 13.16 1.34 19.03 3.77 6.09 2.52 11.57 6.22 16.16 10.81 4.58 4.58 8.28 10.06 10.8 16.17 2.43 5.87 3.77 12.3 3.77 19.02 0 6.73-1.34 13.16-3.77 19.03-2.52 6.09-6.22 11.57-10.81 16.16-4.58 4.58-10.06 8.28-16.17 10.8-5.87 2.43-12.3 3.77-19.02 3.77-6.73 0-13.16-1.34-19.03-3.77-6.09-2.52-11.57-6.22-16.15-10.8l-.01-.01c-4.59-4.59-8.28-10.07-10.8-16.15-.78-1.89-1.45-3.83-2-5.82 1.04.1 2.1.15 3.17.15 2.03 0 4.01-.18 5.94-.53.32.96.67 1.91 1.05 2.84 2.07 5 5.11 9.5 8.89 13.28s8.29 6.82 13.28 8.89c4.81 1.99 10.1 3.1 15.66 3.1s10.84-1.1 15.66-3.1c5-2.07 9.5-5.11 13.28-8.89s6.82-8.29 8.89-13.28c1.99-4.81 3.1-10.1 3.1-15.66s-1.1-10.84-3.1-15.66c-2.07-5-5.11-9.5-8.89-13.28s-8.29-6.82-13.28-8.89c-4.81-1.99-10.1-3.1-15.66-3.1s-10.84 1.1-15.66 3.1c-.43.18-.86.37-1.28.56-1.64-2.58-3.62-4.92-5.89-6.95 1.24-.64 2.51-1.23 3.8-1.77 5.89-2.45 12.31-3.79 19.04-3.79zm-5.71 26.11c0-1.22.5-2.32 1.29-3.12.8-.8 1.9-1.29 3.12-1.29s2.32.49 3.12 1.29 1.29 1.9 1.29 3.12v23.22l17.35 10.29c1.04.62 1.74 1.61 2.02 2.7s.15 2.29-.47 3.33v.01c-.62 1.04-1.61 1.74-2.7 2.02s-2.29.15-3.33-.47h-.01l-19.41-11.51c-.67-.37-1.22-.91-1.62-1.55-.41-.67-.65-1.46-.65-2.3z" fill="#393939"/><path clip-rule="evenodd" d="m26.98 2.64c14.9 0 26.98 12.08 26.98 26.98s-12.08 26.98-26.98 26.98-26.98-12.08-26.98-26.98 12.08-26.98 26.98-26.98zm0 42.45 14.48-17.9h-8.99v-9.52h-10.98v9.52h-8.99z" fill="#ff4141" fill-rule="evenodd"/></svg>