<svg height="9.57" viewBox="0 0 9.57 9.57" width="9.57" xmlns="http://www.w3.org/2000/svg"><g fill="#fff"><path d="m97.067-1544.361a.375.375 0 0 1 -.275-.121.373.373 0 0 1 -.1-.284 2.116 2.116 0 0 1 .674-1.377 2.12 2.12 0 0 1 .508-.348l.084-.041-.071-.06a1.428 1.428 0 0 1 -.513-1.1 1.431 1.431 0 0 1 1.429-1.431 1.431 1.431 0 0 1 1.429 1.431 1.429 1.429 0 0 1 -.513 1.1l-.071.06.084.041a2.12 2.12 0 0 1 .508.348 2.115 2.115 0 0 1 .673 1.377.373.373 0 0 1 -.1.284.375.375 0 0 1 -.275.121zm1.738-1.9a1.663 1.663 0 0 0 -1.133.444 1.659 1.659 0 0 0 -.512.935l-.013.071h3.315l-.012-.071a1.659 1.659 0 0 0 -.512-.935 1.663 1.663 0 0 0 -1.138-.441zm0-2.415a.985.985 0 0 0 -.983.984.985.985 0 0 0 .983.985.985.985 0 0 0 .983-.985.985.985 0 0 0 -.988-.981z" transform="translate(-96.693 1553.931)"/><path d="m113.114-1558.8a.373.373 0 0 1 -.275-.121.371.371 0 0 1 -.1-.284 2.116 2.116 0 0 1 .673-1.377 2.125 2.125 0 0 1 .508-.348l.084-.041-.071-.06a1.428 1.428 0 0 1 -.513-1.1 1.432 1.432 0 0 1 1.429-1.431 1.432 1.432 0 0 1 1.429 1.431 1.427 1.427 0 0 1 -.513 1.1l-.071.06.084.041a2.125 2.125 0 0 1 .508.348 2.114 2.114 0 0 1 .674 1.377.374.374 0 0 1 -.1.285.374.374 0 0 1 -.275.12zm1.738-1.9a1.664 1.664 0 0 0 -1.133.443 1.66 1.66 0 0 0 -.512.935l-.012.071h3.315l-.013-.071a1.66 1.66 0 0 0 -.512-.935 1.664 1.664 0 0 0 -1.133-.438zm0-2.416a.985.985 0 0 0 -.983.985.985.985 0 0 0 .983.984.985.985 0 0 0 .983-.984.985.985 0 0 0 -.983-.98z" transform="translate(-107.393 1563.557)"/><path d="m101.346-1556.708a.3.3 0 0 1 -.237-.113l-.554-.678a.223.223 0 0 1 -.049-.164.222.222 0 0 1 .081-.151.221.221 0 0 1 .141-.05.223.223 0 0 1 .173.082l.221.271v-1.328a.75.75 0 0 1 .75-.75h2.334a.224.224 0 0 1 .223.223.223.223 0 0 1 -.223.223h-2.334a.3.3 0 0 0 -.3.3v1.328l.221-.271a.223.223 0 0 1 .173-.082.221.221 0 0 1 .141.05.222.222 0 0 1 .081.151.223.223 0 0 1 -.049.164l-.554.678a.3.3 0 0 1 -.239.117z" transform="translate(-99.235 1560.911)"/><path d="m110.927-1544.515a.224.224 0 0 1 -.223-.223.224.224 0 0 1 .223-.223h2.334a.3.3 0 0 0 .3-.3v-1.328l-.221.271a.222.222 0 0 1 -.173.082.223.223 0 0 1 -.141-.05.224.224 0 0 1 -.032-.315l.554-.679a.3.3 0 0 1 .237-.112.3.3 0 0 1 .237.112l.554.679a.224.224 0 0 1 -.032.315.223.223 0 0 1 -.141.05.222.222 0 0 1 -.173-.082l-.221-.271v1.328a.751.751 0 0 1 -.75.75z" transform="translate(-106.035 1552.782)"/></g></svg>