<svg height="14.512" viewBox="0 0 10.587 14.512" width="10.587" xmlns="http://www.w3.org/2000/svg"><path d="m60.97 2.148-.109-1.7a.415.415 0 0 0 -.1-.243.439.439 0 0 0 -.243-.093l-1.705-.112a.312.312 0 0 0 -.336.285.312.312 0 0 0 .29.33l1.053.075-1.32 1.321a3.393 3.393 0 0 0 -5.515 2.025 3.4 3.4 0 0 0 .486 6.683v1.443h-1.064a.312.312 0 1 0 0 .623h1.066v1.415a.312.312 0 1 0 .623 0v-1.414h1.066a.312.312 0 1 0 0-.623h-1.062v-1.443a3.4 3.4 0 0 0 3.032-2.8 3.393 3.393 0 0 0 1.817-5.462l1.327-1.327.075 1.062a.312.312 0 0 0 .624-.018c-.005-.012-.005-.019-.005-.027zm-7.185 7.964a2.776 2.776 0 0 1 -.848-5.418 3.39 3.39 0 0 0 3.393 3.331h.14a2.779 2.779 0 0 1 -2.685 2.087zm2.773-2.723h-.224a2.77 2.77 0 0 1 -2.774-2.766q0-.031 0-.063h.224a2.779 2.779 0 0 1 2.776 2.776c.001.019-.002.034-.002.053zm2.463-2.1a2.773 2.773 0 0 1 -.727 1.28v.022a2.761 2.761 0 0 1 -1.112.667 3.4 3.4 0 0 0 -3.4-3.331h-.14a2.773 2.773 0 0 1 5.376 1.362z" fill="#454f63" transform="translate(-50.384 -.001)"/></svg>