<svg height="14.517" viewBox="0 0 10.891 14.517" width="10.891" xmlns="http://www.w3.org/2000/svg"><path d="m10.585 5.444h-.908v-1.211a4.233 4.233 0 0 0 -8.467 0v1.211h-.91a.3.3 0 0 0 -.3.3v7.566a1.209 1.209 0 0 0 1.211 1.208h8.469a1.212 1.212 0 0 0 1.211-1.211v-7.56a.308.308 0 0 0 -.306-.303zm-4.236 6.317a.3.3 0 0 1 -.077.239.3.3 0 0 1 -.224.1h-1.211a.3.3 0 0 1 -.224-.1.312.312 0 0 1 -.077-.235l.19-1.715a1.2 1.2 0 0 1 -.5-.973 1.211 1.211 0 0 1 2.421 0 1.189 1.189 0 0 1 -.5.973zm1.514-6.317h-4.838v-1.211a2.419 2.419 0 0 1 4.837 0z" fill="#ff8900" opacity=".22"/></svg>