<svg xmlns="http://www.w3.org/2000/svg" width="11.063" height="12.672" viewBox="0 0 11.063 12.672">
  <path id="Tracé_8851" d="M-343.089,7.672A1.913,1.913,0,0,1-345,5.761V1.638a1.913,1.913,0,0,1,1.911-1.911h.7V-2.147A2.889,2.889,0,0,1-339.469-5a2.888,2.888,0,0,1,2.917,2.853V-.273h.7a1.913,1.913,0,0,1,1.911,1.911V3.5a.4.4,0,0,1-.4.4.4.4,0,0,1-.4-.4V1.638A1.108,1.108,0,0,0-335.848.531h-7.241A1.108,1.108,0,0,0-344.2,1.638V5.761a1.108,1.108,0,0,0,1.106,1.106h7.241a1.108,1.108,0,0,0,1.106-1.106.4.4,0,0,1,.4-.4.4.4,0,0,1,.4.4,1.913,1.913,0,0,1-1.911,1.911Zm3.62-11.867a2.083,2.083,0,0,0-2.112,2.048V-.273h4.224V-2.147A2.083,2.083,0,0,0-339.469-4.2Z" transform="translate(345 5)" fill="#454f63"/>
</svg>
