<svg xmlns="http://www.w3.org/2000/svg" width="6.529" height="8.49" viewBox="0 0 6.529 8.49">
  <g id="Groupe_8539" transform="translate(-95.75 -459.933)">
    <path id="Tracé_8860" d="M-507.281,3.015V7.536c0,.314-.177.454-.359.454a.5.5,0,0,1-.321-.139l-2.067-1.761A.39.39,0,0,0-510.28,6a.392.392,0,0,0-.252.086l-2.074,1.761a.517.517,0,0,1-.329.138.347.347,0,0,1-.286-.149.527.527,0,0,1-.089-.3V3.015A3.015,3.015,0,0,1-510.3,0a3.007,3.007,0,0,1,2.132.883A3,3,0,0,1-507.281,3.015Z" transform="translate(609.31 460.183)" fill="none" stroke="#fff" stroke-width="0.5"/>
  </g>
</svg>
