<svg height="6.632" viewBox="0 0 9.948 6.632" width="9.948" xmlns="http://www.w3.org/2000/svg"><g fill="#00ba40"><path d="m8.912 85.333h-7.876a1.038 1.038 0 0 0 -1.036 1.036v4.559a1.038 1.038 0 0 0 1.036 1.036h7.875a1.038 1.038 0 0 0 1.036-1.036v-4.559a1.038 1.038 0 0 0 -1.035-1.036zm.622 5.6a.622.622 0 0 1 -.622.622h-7.876a.622.622 0 0 1 -.622-.622v-4.564a.622.622 0 0 1 .622-.622h7.875a.622.622 0 0 1 .622.622v4.559z" transform="translate(0 -85.333)"/><path d="m9.74 149.333h-9.533a.207.207 0 0 0 -.207.207v1.243a.207.207 0 0 0 .207.207h9.534a.207.207 0 0 0 .207-.207v-1.243a.207.207 0 0 0 -.208-.207zm-.207 1.243h-9.119v-.829h9.119z" transform="translate(0 -148.09)"/><path d="m66.694 298.667h-2.487a.207.207 0 1 0 0 .414h2.487a.207.207 0 1 0 0-.414z" transform="translate(-62.757 -294.522)"/><path d="m66.694 341.333h-2.487a.207.207 0 0 0 0 .415h2.487a.207.207 0 0 0 0-.415z" transform="translate(-62.757 -336.359)"/><path d="m363.7 277.333h-.415a.622.622 0 0 0 -.622.622v.414a.622.622 0 0 0 .622.622h.415a.622.622 0 0 0 .622-.622v-.414a.622.622 0 0 0 -.622-.622zm.207 1.036a.207.207 0 0 1 -.207.207h-.415a.207.207 0 0 1 -.207-.207v-.414a.207.207 0 0 1 .207-.207h.415a.207.207 0 0 1 .207.207z" transform="translate(-355.621 -273.603)"/></g></svg>