<svg height="7.836" viewBox="0 0 10.454 7.836" width="10.454" xmlns="http://www.w3.org/2000/svg"><path d="m-687.2 449.683a6.631 6.631 0 0 1 .162-.671 2.527 2.527 0 0 1 1.24-1.427l.09-.047a4.541 4.541 0 0 1 -.288-.452 1.545 1.545 0 0 1 .345-1.821 1.565 1.565 0 0 1 1.845-.209.177.177 0 0 1 .093.246.175.175 0 0 1 -.255.061 1.4 1.4 0 0 0 -.531-.165 1.224 1.224 0 0 0 -1.291 1.018 1.2 1.2 0 0 0 .951 1.381 2.179 2.179 0 0 0 .555-.008c.135-.012.228.022.248.128s-.041.181-.178.214a1.54 1.54 0 0 1 -1.07-.119.213.213 0 0 0 -.159 0 2.2 2.2 0 0 0 -1.4 2.023c-.017.3 0 .611 0 .925h1.586a3.277 3.277 0 0 1 .606-1.578 3.332 3.332 0 0 1 1.311-1.074 1.934 1.934 0 0 1 .111-2.788 1.944 1.944 0 0 1 2.5-.019 1.933 1.933 0 0 1 .138 2.8 3.347 3.347 0 0 1 1.916 2.658h1.584c0-.162 0-.32 0-.479a3.26 3.26 0 0 0 -.1-1.041 2.216 2.216 0 0 0 -1.329-1.439.2.2 0 0 0 -.141.011 1.531 1.531 0 0 1 -1.06.122c-.146-.035-.209-.105-.187-.216s.113-.152.258-.121a1.222 1.222 0 0 0 1.416-.711 1.215 1.215 0 0 0 -.281-1.351 1.208 1.208 0 0 0 -1.38-.212 1.2 1.2 0 0 1 -.12.056.17.17 0 0 1 -.218-.077.163.163 0 0 1 .069-.228 2.121 2.121 0 0 1 .412-.172 1.548 1.548 0 0 1 1.75.728 1.551 1.551 0 0 1 -.207 1.843c-.013.015-.026.031-.04.048.14.086.283.162.412.257a2.544 2.544 0 0 1 1.088 2.027c.017.363 0 .728 0 1.092 0 .155-.062.217-.216.217h-1.7v.123q0 .607 0 1.214c0 .174-.058.232-.233.232h-6.153c-.169 0-.229-.059-.229-.226 0-.442 0-.884 0-1.343h-.122c-.521 0-1.041 0-1.561 0a.232.232 0 0 1 -.234-.127zm8.167 2.648a14.7 14.7 0 0 0 -.009-1.519 2.872 2.872 0 0 0 -1.764-2.415.2.2 0 0 0 -.214.017 1.821 1.821 0 0 1 -1.154.251 1.888 1.888 0 0 1 -.786-.264.165.165 0 0 0 -.127-.021 2.887 2.887 0 0 0 -1.84 2.62c-.028.43-.006.864-.007 1.3a.2.2 0 0 0 .008.04zm-2.944-4a1.579 1.579 0 0 0 1.571-1.562 1.576 1.576 0 0 0 -1.567-1.574 1.574 1.574 0 0 0 -1.57 1.571 1.576 1.576 0 0 0 1.566 1.563z" fill="#665eff" transform="translate(687.2 -444.847)"/></svg>