<svg height="7.452" viewBox="0 0 7.452 7.452" width="7.452" xmlns="http://www.w3.org/2000/svg"><g fill="#fff"><path d="m102.967-1185.782a.151.151 0 0 0 -.214 0 .152.152 0 0 0 0 .215l.295.295a.372.372 0 0 1 .11.265.372.372 0 0 1 -.11.264l-.007.007a.371.371 0 0 1 -.265.11.371.371 0 0 1 -.264-.11l-.295-.295a.152.152 0 0 0 -.191-.019 2.521 2.521 0 0 1 -.9.374.151.151 0 0 0 -.122.148v.417a.374.374 0 0 1 -.374.374h-.011a.374.374 0 0 1 -.374-.374v-.417a.151.151 0 0 0 -.122-.148 2.518 2.518 0 0 1 -.9-.374.151.151 0 0 0 -.191.019l-.295.295a.371.371 0 0 1 -.264.11.37.37 0 0 1 -.264-.11l-.008-.007a.371.371 0 0 1 -.109-.264.371.371 0 0 1 .109-.265l.295-.295a.152.152 0 0 0 .019-.191 2.505 2.505 0 0 1 -.374-.9.152.152 0 0 0 -.149-.122h-.417a.374.374 0 0 1 -.374-.374v-.011a.374.374 0 0 1 .374-.373h.417a.152.152 0 0 0 .149-.122 2.5 2.5 0 0 1 .374-.9.152.152 0 0 0 -.019-.191l-.295-.295a.371.371 0 0 1 -.109-.264.37.37 0 0 1 .109-.264l.008-.008a.371.371 0 0 1 .264-.109.372.372 0 0 1 .264.109l.295.3a.152.152 0 0 0 .214 0 .152.152 0 0 0 0-.215l-.295-.295a.672.672 0 0 0 -.479-.2.672.672 0 0 0 -.479.2l-.007.007a.673.673 0 0 0 -.2.479.673.673 0 0 0 .2.479l.209.209a2.808 2.808 0 0 0 -.325.782h-.295a.678.678 0 0 0 -.677.677v.011a.678.678 0 0 0 .677.677h.295a2.81 2.81 0 0 0 .324.782l-.209.209a.672.672 0 0 0 -.2.479.672.672 0 0 0 .2.479l.007.008a.672.672 0 0 0 .479.2.672.672 0 0 0 .479-.2l.209-.209a2.8 2.8 0 0 0 .782.324v.295a.678.678 0 0 0 .677.677h.011a.678.678 0 0 0 .677-.677v-.295a2.8 2.8 0 0 0 .782-.324l.209.209a.672.672 0 0 0 .479.2.672.672 0 0 0 .479-.2l.008-.008a.672.672 0 0 0 .2-.479.672.672 0 0 0 -.2-.479z" transform="translate(-96.897 1190.886)"/><path d="m109.761-1189.623h-.295a2.8 2.8 0 0 0 -.324-.782l.209-.209a.678.678 0 0 0 0-.958l-.008-.007a.672.672 0 0 0 -.479-.2.671.671 0 0 0 -.479.2l-.209.209a2.813 2.813 0 0 0 -.782-.324v-.3a.678.678 0 0 0 -.677-.677h-.011a.678.678 0 0 0 -.677.677v.417a.152.152 0 0 0 .152.152.152.152 0 0 0 .152-.152v-.417a.374.374 0 0 1 .374-.374h.011a.374.374 0 0 1 .374.374v.417a.152.152 0 0 0 .122.149 2.5 2.5 0 0 1 .9.374.152.152 0 0 0 .191-.019l.295-.295a.371.371 0 0 1 .264-.109.371.371 0 0 1 .265.109l.007.008a.371.371 0 0 1 .11.264.371.371 0 0 1 -.11.264l-.295.3a.151.151 0 0 0 -.019.191 2.508 2.508 0 0 1 .373.9.152.152 0 0 0 .149.122h.416a.374.374 0 0 1 .374.374v.011a.374.374 0 0 1 -.374.374h-.416a.152.152 0 0 0 -.152.152.152.152 0 0 0 .152.152h.416a.678.678 0 0 0 .677-.677v-.011a.678.678 0 0 0 -.676-.679z" transform="translate(-102.987 1192.666)"/><path d="m106.328-1182.663a.563.563 0 0 1 -.359-.127.152.152 0 0 0 -.213.022.151.151 0 0 0 .022.213.875.875 0 0 0 .55.195.876.876 0 0 0 .875-.875.876.876 0 0 0 -.875-.874.875.875 0 0 0 -.874.874.152.152 0 0 0 .152.152.152.152 0 0 0 .152-.152.572.572 0 0 1 .571-.571.572.572 0 0 1 .571.571.572.572 0 0 1 -.572.572z" transform="translate(-102.603 1186.96)"/></g></svg>