<svg height="7.582" viewBox="0 0 7.582 7.582" width="7.582" xmlns="http://www.w3.org/2000/svg"><g fill="#3497fd"><path d="m6.315.859s0-.008 0-.012a.116.116 0 0 0 -.015-.02.121.121 0 0 0 -.012-.021l-.015-.016a.115.115 0 0 0 -.02-.013l-.02-.01-.025-.005h-.016-.638c-.032-.444-.236-.762-.5-.762s-.468.318-.5.758h-.263c-.033-.44-.237-.758-.5-.758s-.468.318-.5.758h-.264c-.032-.44-.237-.758-.5-.758s-.468.318-.5.758h-.264c-.032-.44-.236-.758-.5-.758s-.463.318-.5.758h-.637a.126.126 0 0 0 -.126.127v6.57a.126.126 0 0 0 .126.126h6.066a.126.126 0 0 0 .126-.126v-.379h1.137a.126.126 0 0 0 .124-.152zm-1.261-.606c.091 0 .219.194.247.505h-.493c.028-.312.155-.505.246-.505zm-1.264 0c.091 0 .219.194.247.505h-.493c.028-.312.156-.505.247-.505zm-1.264 0c.091 0 .219.194.247.505h-.492c.027-.312.155-.505.246-.505zm-1.264 0c.091 0 .219.194.247.505h-.492c.028-.312.155-.505.246-.505zm-1.01.758h.511c.033.44.237.758.5.758a.126.126 0 1 0 0-.253c-.091 0-.219-.194-.247-.505h1.01c.033.44.237.758.5.758a.126.126 0 1 0 0-.253c-.091 0-.219-.194-.247-.505h1.011c.033.44.237.758.5.758a.126.126 0 1 0 0-.253c-.091 0-.219-.194-.247-.505h1.01c.033.44.237.758.5.758a.126.126 0 1 0 0-.253c-.091 0-.219-.194-.247-.505h1.259v1.264h-5.813zm5.813 6.318h-5.813v-4.8h5.813zm.253-.505v-4.714l.982 4.714zm0 0"/><path d="m136.632 288h-.505a.126.126 0 0 0 -.126.126v.505a.126.126 0 0 0 .126.126h.505a.126.126 0 0 0 .126-.126v-.505a.126.126 0 0 0 -.126-.126zm-.126.505h-.253v-.253h.253zm0 0" transform="translate(-133.852 -283.451)"/><path d="m216.632 288h-.505a.126.126 0 0 0 -.126.126v.505a.126.126 0 0 0 .126.126h.505a.126.126 0 0 0 .126-.126v-.505a.126.126 0 0 0 -.126-.126zm-.126.505h-.253v-.253h.253zm0 0" transform="translate(-212.588 -283.451)"/><path d="m56.632 288h-.505a.126.126 0 0 0 -.126.126v.505a.126.126 0 0 0 .126.126h.505a.126.126 0 0 0 .126-.126v-.505a.126.126 0 0 0 -.126-.126zm-.126.505h-.253v-.253h.253zm0 0" transform="translate(-55.116 -283.451)"/><path d="m136.632 368h-.505a.126.126 0 0 0 -.126.126v.505a.126.126 0 0 0 .126.126h.505a.126.126 0 0 0 .126-.126v-.505a.126.126 0 0 0 -.126-.126zm-.126.505h-.253v-.253h.253zm0 0" transform="translate(-133.852 -362.187)"/><path d="m216.632 368h-.505a.126.126 0 0 0 -.126.126v.505a.126.126 0 0 0 .126.126h.505a.126.126 0 0 0 .126-.126v-.505a.126.126 0 0 0 -.126-.126zm-.126.505h-.253v-.253h.253zm0 0" transform="translate(-212.588 -362.187)"/><path d="m56.632 368h-.505a.126.126 0 0 0 -.126.126v.505a.126.126 0 0 0 .126.126h.505a.126.126 0 0 0 .126-.126v-.505a.126.126 0 0 0 -.126-.126zm-.126.505h-.253v-.253h.253zm0 0" transform="translate(-55.116 -362.187)"/><path d="m136.632 208h-.505a.126.126 0 0 0 -.126.126v.505a.126.126 0 0 0 .126.126h.505a.126.126 0 0 0 .126-.126v-.505a.126.126 0 0 0 -.126-.126zm-.126.505h-.253v-.253h.253zm0 0" transform="translate(-133.852 -204.715)"/><path d="m216.632 208h-.505a.126.126 0 0 0 -.126.126v.505a.126.126 0 0 0 .126.126h.505a.126.126 0 0 0 .126-.126v-.505a.126.126 0 0 0 -.126-.126zm-.126.505h-.253v-.253h.253zm0 0" transform="translate(-212.588 -204.715)"/><path d="m296.632 288h-.505a.126.126 0 0 0 -.126.126v.505a.126.126 0 0 0 .126.126h.505a.126.126 0 0 0 .126-.126v-.505a.126.126 0 0 0 -.126-.126zm-.126.505h-.253v-.253h.253zm0 0" transform="translate(-291.325 -283.451)"/><path d="m296.632 368h-.505a.126.126 0 0 0 -.126.126v.505a.126.126 0 0 0 .126.126h.505a.126.126 0 0 0 .126-.126v-.505a.126.126 0 0 0 -.126-.126zm-.126.505h-.253v-.253h.253zm0 0" transform="translate(-291.325 -362.187)"/><path d="m296.632 208h-.505a.126.126 0 0 0 -.126.126v.505a.126.126 0 0 0 .126.126h.505a.126.126 0 0 0 .126-.126v-.505a.126.126 0 0 0 -.126-.126zm-.126.505h-.253v-.253h.253zm0 0" transform="translate(-291.325 -204.715)"/><path d="m56.632 208h-.505a.126.126 0 0 0 -.126.126v.505a.126.126 0 0 0 .126.126h.505a.126.126 0 0 0 .126-.126v-.505a.126.126 0 0 0 -.126-.126zm-.126.505h-.253v-.253h.253zm0 0" transform="translate(-55.116 -204.715)"/></g></svg>