<svg xmlns="http://www.w3.org/2000/svg" width="10.021" height="14.763" viewBox="0 0 10.021 14.763">
  <g id="Groupe_8475" transform="translate(-78.957)">
    <g id="Groupe_8474" transform="translate(78.957)">
      <path id="Tracé_8845" d="M83.967,0a5.016,5.016,0,0,0-5.01,5.01c0,1.11.654,2.8,2.057,5.313.958,1.716,1.911,3.165,1.951,3.226l.689,1.044a.375.375,0,0,0,.627,0l.689-1.044c.04-.06.986-1.5,1.951-3.226,1.4-2.515,2.057-4.2,2.057-5.313A5.016,5.016,0,0,0,83.967,0Zm2.3,9.958c-.952,1.705-1.883,3.119-1.922,3.179l-.376.569-.376-.569c-.039-.06-.978-1.487-1.922-3.179-1.3-2.333-1.962-4-1.962-4.948a4.26,4.26,0,0,1,8.519,0C88.227,5.961,87.567,7.625,86.265,9.958Z" transform="translate(-78.957)" fill="#454f63"/>
      <path id="Tracé_8846" d="M156.069,73.291a2.778,2.778,0,1,0,2.778,2.778A2.781,2.781,0,0,0,156.069,73.291Zm0,4.805a2.027,2.027,0,1,1,2.027-2.027A2.029,2.029,0,0,1,156.069,78.1Z" transform="translate(-151.059 -71.09)" fill="#454f63"/>
    </g>
  </g>
</svg>
