<svg height="36" viewBox="0 0 21 36" width="21" xmlns="http://www.w3.org/2000/svg"><path d="m7.875 22.285v11.015l1.548 2.322c.15685602.2328597.41923773.3724748.7.3724748.2807623 0 .543144-.1396151.7-.3724748l1.552-2.322v-11.015c-1.4862831.286882-3.01371688.286882-4.5 0zm2.25-22.285c-5.59188309 0-10.125 4.53311691-10.125 10.125 0 5.5918831 4.53311691 10.125 10.125 10.125 5.5918831 0 10.125-4.5331169 10.125-10.125 0-5.59188309-4.5331169-10.125-10.125-10.125zm0 5.344c-2.63933101.00275591-4.77824409 2.14166899-4.781 4.781-.01565331.454553-.38867759.8149526-.8435.8149526s-.82784669-.3603996-.8435-.8149526c.003858-3.57113079 2.89786921-6.465142 6.469-6.469.4661283 0 .844.37787167.844.844s-.3778717.844-.844.844z" fill="#00ba40"/></svg>