<svg xmlns="http://www.w3.org/2000/svg" width="7.582" height="7.582" viewBox="0 0 7.582 7.582">
  <g id="calendar" transform="translate(0 0)">
    <path id="Tracé_8878" d="M6.315.859s0-.008,0-.012A.116.116,0,0,0,6.3.827.121.121,0,0,0,6.288.806L6.273.79A.115.115,0,0,0,6.253.777l-.02-.01L6.208.762l-.016,0H5.554C5.522.318,5.318,0,5.054,0s-.468.318-.5.758H4.291C4.258.318,4.054,0,3.791,0s-.468.318-.5.758H3.027C2.995.318,2.79,0,2.527,0s-.468.318-.5.758H1.763C1.731.318,1.527,0,1.263,0S.8.318.763.758H.126A.126.126,0,0,0,0,.885V7.455a.126.126,0,0,0,.126.126H6.192a.126.126,0,0,0,.126-.126V7.076H7.455a.126.126,0,0,0,.124-.152ZM5.054.253c.091,0,.219.194.247.505H4.808C4.836.446,4.963.253,5.054.253Zm-1.264,0c.091,0,.219.194.247.505H3.544C3.572.446,3.7.253,3.791.253Zm-1.264,0c.091,0,.219.194.247.505H2.281C2.308.446,2.436.253,2.527.253Zm-1.264,0c.091,0,.219.194.247.505H1.017C1.045.446,1.172.253,1.263.253ZM.252,1.011H.763c.033.44.237.758.5.758a.126.126,0,1,0,0-.253c-.091,0-.219-.194-.247-.505h1.01c.033.44.237.758.5.758a.126.126,0,1,0,0-.253c-.091,0-.219-.194-.247-.505H3.29c.033.44.237.758.5.758a.126.126,0,1,0,0-.253c-.091,0-.219-.194-.247-.505h1.01c.033.44.237.758.5.758a.126.126,0,1,0,0-.253c-.091,0-.219-.194-.247-.505H6.065V2.275H.252ZM6.065,7.329H.252v-4.8H6.065Zm.253-.505V2.11L7.3,6.824Zm0,0" fill="#3497fd"/>
    <path id="Tracé_8879" d="M136.632,288h-.505a.126.126,0,0,0-.126.126v.505a.126.126,0,0,0,.126.126h.505a.126.126,0,0,0,.126-.126v-.505A.126.126,0,0,0,136.632,288Zm-.126.505h-.253v-.253h.253Zm0,0" transform="translate(-133.852 -283.451)" fill="#3497fd"/>
    <path id="Tracé_8880" d="M216.632,288h-.505a.126.126,0,0,0-.126.126v.505a.126.126,0,0,0,.126.126h.505a.126.126,0,0,0,.126-.126v-.505A.126.126,0,0,0,216.632,288Zm-.126.505h-.253v-.253h.253Zm0,0" transform="translate(-212.588 -283.451)" fill="#3497fd"/>
    <path id="Tracé_8881" d="M56.632,288h-.505a.126.126,0,0,0-.126.126v.505a.126.126,0,0,0,.126.126h.505a.126.126,0,0,0,.126-.126v-.505A.126.126,0,0,0,56.632,288Zm-.126.505h-.253v-.253h.253Zm0,0" transform="translate(-55.116 -283.451)" fill="#3497fd"/>
    <path id="Tracé_8882" d="M136.632,368h-.505a.126.126,0,0,0-.126.126v.505a.126.126,0,0,0,.126.126h.505a.126.126,0,0,0,.126-.126v-.505A.126.126,0,0,0,136.632,368Zm-.126.505h-.253v-.253h.253Zm0,0" transform="translate(-133.852 -362.187)" fill="#3497fd"/>
    <path id="Tracé_8883" d="M216.632,368h-.505a.126.126,0,0,0-.126.126v.505a.126.126,0,0,0,.126.126h.505a.126.126,0,0,0,.126-.126v-.505A.126.126,0,0,0,216.632,368Zm-.126.505h-.253v-.253h.253Zm0,0" transform="translate(-212.588 -362.187)" fill="#3497fd"/>
    <path id="Tracé_8884" d="M56.632,368h-.505a.126.126,0,0,0-.126.126v.505a.126.126,0,0,0,.126.126h.505a.126.126,0,0,0,.126-.126v-.505A.126.126,0,0,0,56.632,368Zm-.126.505h-.253v-.253h.253Zm0,0" transform="translate(-55.116 -362.187)" fill="#3497fd"/>
    <path id="Tracé_8885" d="M136.632,208h-.505a.126.126,0,0,0-.126.126v.505a.126.126,0,0,0,.126.126h.505a.126.126,0,0,0,.126-.126v-.505A.126.126,0,0,0,136.632,208Zm-.126.505h-.253v-.253h.253Zm0,0" transform="translate(-133.852 -204.715)" fill="#3497fd"/>
    <path id="Tracé_8886" d="M216.632,208h-.505a.126.126,0,0,0-.126.126v.505a.126.126,0,0,0,.126.126h.505a.126.126,0,0,0,.126-.126v-.505A.126.126,0,0,0,216.632,208Zm-.126.505h-.253v-.253h.253Zm0,0" transform="translate(-212.588 -204.715)" fill="#3497fd"/>
    <path id="Tracé_8887" d="M296.632,288h-.505a.126.126,0,0,0-.126.126v.505a.126.126,0,0,0,.126.126h.505a.126.126,0,0,0,.126-.126v-.505A.126.126,0,0,0,296.632,288Zm-.126.505h-.253v-.253h.253Zm0,0" transform="translate(-291.325 -283.451)" fill="#3497fd"/>
    <path id="Tracé_8888" d="M296.632,368h-.505a.126.126,0,0,0-.126.126v.505a.126.126,0,0,0,.126.126h.505a.126.126,0,0,0,.126-.126v-.505A.126.126,0,0,0,296.632,368Zm-.126.505h-.253v-.253h.253Zm0,0" transform="translate(-291.325 -362.187)" fill="#3497fd"/>
    <path id="Tracé_8889" d="M296.632,208h-.505a.126.126,0,0,0-.126.126v.505a.126.126,0,0,0,.126.126h.505a.126.126,0,0,0,.126-.126v-.505A.126.126,0,0,0,296.632,208Zm-.126.505h-.253v-.253h.253Zm0,0" transform="translate(-291.325 -204.715)" fill="#3497fd"/>
    <path id="Tracé_8890" d="M56.632,208h-.505a.126.126,0,0,0-.126.126v.505a.126.126,0,0,0,.126.126h.505a.126.126,0,0,0,.126-.126v-.505A.126.126,0,0,0,56.632,208Zm-.126.505h-.253v-.253h.253Zm0,0" transform="translate(-55.116 -204.715)" fill="#3497fd"/>
  </g>
</svg>
