<svg height="9.092" viewBox="0 0 9.092 9.092" width="9.092" xmlns="http://www.w3.org/2000/svg"><g fill="#ffb900"><path d="m4.546 0a4.546 4.546 0 1 0 4.546 4.546 4.546 4.546 0 0 0 -4.546-4.546zm.2 8.693v-.8a.2.2 0 1 0 -.39 0v.8a4.154 4.154 0 0 1 -3.956-3.952h.8a.2.2 0 0 0 0-.39h-.8a4.154 4.154 0 0 1 3.951-3.951v.8a.2.2 0 0 0 .39 0v-.8a4.154 4.154 0 0 1 3.952 3.951h-.8a.2.2 0 1 0 0 .39h.8a4.154 4.154 0 0 1 -3.952 3.952z"/><path d="m180.733 98.537-1.863-1.894v-1.968a.2.2 0 0 0 -.39 0v2.048a.2.2 0 0 0 .057.137l1.917 1.95a.2.2 0 1 0 .279-.273z" transform="translate(-174.129 -92.177)"/></g></svg>