<svg height="14" viewBox="0 0 13.997 14" width="13.997" xmlns="http://www.w3.org/2000/svg"><path d="m-33.317 13.7a6.059 6.059 0 0 1 -2.068-.438 15.278 15.278 0 0 1 -5.143-3.519 15.3 15.3 0 0 1 -3.519-5.143c-.59-1.564-.579-2.86.028-3.467.075-.075.151-.155.229-.237a2.89 2.89 0 0 1 1.949-1.196h.055a2.377 2.377 0 0 1 1.686 1.068c1.646 2.048.862 2.819.033 3.636l-.145.144c-.057.057-.071.24.079.565a9.663 9.663 0 0 0 1.888 2.346 12.937 12.937 0 0 0 1.926 1.651 1.862 1.862 0 0 0 .847.36.192.192 0 0 0 .141-.045l.144-.147a2.29 2.29 0 0 1 1.6-.929 3.458 3.458 0 0 1 2.03.964 2.374 2.374 0 0 1 1.071 1.687 2.769 2.769 0 0 1 -1.175 1.987s-.193.185-.257.248a1.931 1.931 0 0 1 -1.399.465zm-8.529-13.261c-.492 0-.968.5-1.389.944-.1.108-.183.192-.263.271-.378.378-.322 1.457.141 2.685a14.553 14.553 0 0 0 3.351 4.882 14.553 14.553 0 0 0 4.881 3.351 5.343 5.343 0 0 0 1.814.39 1.234 1.234 0 0 0 .87-.249c.079-.079.163-.159.25-.242.474-.449.987-.937.966-1.44a1.749 1.749 0 0 0 -.791-1.142 2.819 2.819 0 0 0 -1.542-.789c-.412 0-.7.294-1.1.7l-.148.149a.891.891 0 0 1 -.654.263 2.462 2.462 0 0 1 -1.259-.479 13.613 13.613 0 0 1 -2.044-1.75c-2.047-2.047-2.654-3.267-1.966-3.956l.148-.146c.758-.745 1.139-1.12-.089-2.648a1.754 1.754 0 0 0 -1.145-.794l-.031-.139z" fill="#454f63" transform="translate(44.483 .3)"/></svg>