<svg xmlns="http://www.w3.org/2000/svg" width="30.875" height="28.487" viewBox="0 0 30.875 28.487">
  <g id="Groupe_8746" transform="translate(-2464.5 1000.5)">
    <path id="Tracé_8867" d="M2467.614-989.038v16.886h8.116V-978.6h5.032v6.77h8.36v-17.2l-10.795-10.594Z" transform="translate(1.525 -0.18)" fill="#fff"/>
    <path id="Tracé_8865" d="M170.644,2364.39a.611.611,0,0,0-.625.625V2377.2H163.33v-5.122a.617.617,0,0,0-.593-.609H158.26a.634.634,0,0,0-.64.609v5.122h-6.673v-11.788a.609.609,0,0,0-1.218,0v12.414a.6.6,0,0,0,.593.594h7.938a.6.6,0,0,0,.593-.594V2372.7h3.26v5.123a.611.611,0,0,0,.624.594h7.907a.6.6,0,0,0,.593-.594v-12.81A.6.6,0,0,0,170.644,2364.39Z" transform="translate(2319.41 -3350.432)" fill="#fff"/>
    <path id="Tracé_8866" d="M165.14,2347.51v-4.82a.624.624,0,0,0-.64-.622.6.6,0,0,0-.593.622v3.59l-6.109-6.145a.6.6,0,0,0-.41-.2.613.613,0,0,0-.444.2l-14.273,14.273a.638.638,0,0,0-.192.468.54.54,0,0,0,.2.4.515.515,0,0,0,.394.18.645.645,0,0,0,.448-.193l13.863-13.83,13.829,13.959a.6.6,0,0,0,.442.15.7.7,0,0,0,.443-.15.649.649,0,0,0,0-.889Z" transform="translate(2322.522 -3339.937)" fill="#fff" stroke="#fff" stroke-width="1"/>
  </g>
</svg>
