<svg height="13.958" viewBox="0 0 12.214 13.958" width="12.214" xmlns="http://www.w3.org/2000/svg"><path d="m6.488 12.869h-4.307a1.092 1.092 0 0 1 -1.09-1.09v-4.472a1.092 1.092 0 0 1 1.09-1.09h7.852a1.092 1.092 0 0 1 1.09 1.09v1.093a.545.545 0 1 0 1.09 0v-1.093a2.183 2.183 0 0 0 -2.181-2.181h-.655v-1.926a3.241 3.241 0 0 0 -3.271-3.2 3.241 3.241 0 0 0 -3.272 3.2v1.926h-.653a2.183 2.183 0 0 0 -2.181 2.181v4.471a2.183 2.183 0 0 0 2.181 2.181h4.307a.545.545 0 1 0 0-1.09zm-2.563-9.669a2.15 2.15 0 0 1 2.181-2.109 2.15 2.15 0 0 1 2.181 2.109v1.926h-4.362z" fill="#acacab" transform="translate(0 -.001)"/></svg>