<svg id="Groupe_240" data-name="Groupe 240" xmlns="http://www.w3.org/2000/svg" width="8.726" height="7.124" viewBox="0 0 8.726 7.124">
  <g id="Groupe_239" transform="translate(0 0)">
    <g id="Groupe_238">
      <path id="Tracé_410" d="M111.63-2097.809h2.326a.138.138,0,0,0,.146-.146v-1.308a.138.138,0,0,0-.146-.146H111.63a.137.137,0,0,0-.145.146v1.308A.137.137,0,0,0,111.63-2097.809Zm.145-1.309h2.035v1.018h-2.035Z" transform="translate(-106.978 2102.752)" fill="#fff"/>
      <path id="Tracé_411" d="M99.851-2100.863h1.163a.137.137,0,0,0,.145-.145.137.137,0,0,0-.145-.146H99.851a.138.138,0,0,0-.146.146A.137.137,0,0,0,99.851-2100.863Z" transform="translate(-99.124 2103.916)" fill="#fff"/>
      <path id="Tracé_412" d="M105.086-2100.863h1.163a.137.137,0,0,0,.145-.145.137.137,0,0,0-.145-.146h-1.163a.137.137,0,0,0-.145.146A.137.137,0,0,0,105.086-2100.863Z" transform="translate(-102.615 2103.916)" fill="#fff"/>
      <path id="Tracé_413" d="M99.851-2099.117h1.89a.137.137,0,0,0,.145-.145.137.137,0,0,0-.145-.146h-1.89a.138.138,0,0,0-.146.146A.137.137,0,0,0,99.851-2099.117Z" transform="translate(-99.124 2102.752)" fill="#fff"/>
      <path id="Tracé_414" d="M107.7-2099.408h-.436a.137.137,0,0,0-.145.146.137.137,0,0,0,.145.145h.436a.137.137,0,0,0,.145-.145A.137.137,0,0,0,107.7-2099.408Z" transform="translate(-104.069 2102.752)" fill="#fff"/>
      <path id="Tracé_415" d="M106.552-2107.9a.541.541,0,0,0-.393-.218l-.349-.042v-.7a.583.583,0,0,0-.581-.582H98.542a.583.583,0,0,0-.581.582v4.652a.584.584,0,0,0,.417.558.565.565,0,0,0,.514.576l6.717.756h.058a.582.582,0,0,0,.581-.494l.436-4.667A.567.567,0,0,0,106.552-2107.9Zm-8.3-.523h7.269v.872H98.251Zm.291-.727h6.688a.291.291,0,0,1,.291.291v.146H98.251v-.146A.291.291,0,0,1,98.542-2109.152Zm-.291,4.943v-3.053h7.269v3.053a.292.292,0,0,1-.291.291H98.542A.291.291,0,0,1,98.251-2104.209Zm8.141-3.329-.436,4.667a.293.293,0,0,1-.32.261l-6.7-.756a.3.3,0,0,1-.262-.262h6.557a.583.583,0,0,0,.581-.582v-3.678l.334.029a.249.249,0,0,1,.189.1A.3.3,0,0,1,106.392-2107.538Z" transform="translate(-97.96 2109.443)" fill="#fff"/>
    </g>
  </g>
</svg>
