<svg id="clock" xmlns="http://www.w3.org/2000/svg" width="9.092" height="9.092" viewBox="0 0 9.092 9.092">
  <g id="Groupe_8532">
    <g id="Groupe_8531">
      <path id="Tracé_8876" d="M4.546,0A4.546,4.546,0,1,0,9.092,4.546,4.546,4.546,0,0,0,4.546,0Zm.2,8.693v-.8a.2.2,0,1,0-.39,0v.8A4.154,4.154,0,0,1,.4,4.741h.8a.2.2,0,0,0,0-.39H.4A4.154,4.154,0,0,1,4.351.4v.8a.2.2,0,0,0,.39,0V.4A4.154,4.154,0,0,1,8.693,4.351h-.8a.2.2,0,1,0,0,.39h.8A4.154,4.154,0,0,1,4.741,8.693Z" fill="#ffb900"/>
    </g>
  </g>
  <g id="Groupe_8534" transform="translate(4.351 2.303)">
    <g id="Groupe_8533">
      <path id="Tracé_8877" d="M180.733,98.537l-1.863-1.894V94.675a.2.2,0,0,0-.39,0v2.048a.2.2,0,0,0,.057.137l1.917,1.95a.2.2,0,1,0,.279-.273Z" transform="translate(-178.48 -94.48)" fill="#ffb900"/>
    </g>
  </g>
</svg>
