<svg height="16.349" viewBox="0 0 17.408 16.349" width="17.408" xmlns="http://www.w3.org/2000/svg"><g fill="#78849e"><path d="m161.947 2364.39a.357.357 0 0 0 -.365.365v7.118h-3.907v-2.992a.36.36 0 0 0 -.346-.355h-2.615a.37.37 0 0 0 -.374.355v2.992h-3.9v-6.886a.356.356 0 0 0 -.711 0v7.251a.352.352 0 0 0 .346.347h4.637a.351.351 0 0 0 .346-.347v-2.992h1.9v2.992a.357.357 0 0 0 .365.347h4.619a.352.352 0 0 0 .346-.347v-7.483a.352.352 0 0 0 -.341-.365z" transform="translate(-147.311 -2356.237)"/><path d="m155.716 2344.361v-2.815a.365.365 0 0 0 -.374-.364.351.351 0 0 0 -.346.364v2.1l-3.569-3.59a.348.348 0 0 0 -.24-.115.358.358 0 0 0 -.259.115l-8.338 8.338a.373.373 0 0 0 -.112.273.315.315 0 0 0 .119.233.3.3 0 0 0 .23.105.376.376 0 0 0 .262-.113l8.1-8.079 8.078 8.154a.351.351 0 0 0 .258.088.41.41 0 0 0 .259-.088.379.379 0 0 0 0-.52z" transform="translate(-142.478 -2339.937)"/></g></svg>