<svg xmlns="http://www.w3.org/2000/svg" width="9.948" height="6.632" viewBox="0 0 9.948 6.632">
  <g id="credit-card" transform="translate(0 -85.333)">
    <g id="Groupe_8522" transform="translate(0 85.333)">
      <g id="Groupe_8521" transform="translate(0 0)">
        <path id="Tracé_8871" d="M8.912,85.333H1.036A1.038,1.038,0,0,0,0,86.369v4.559a1.038,1.038,0,0,0,1.036,1.036H8.911a1.038,1.038,0,0,0,1.036-1.036V86.369A1.038,1.038,0,0,0,8.912,85.333Zm.622,5.6a.622.622,0,0,1-.622.622H1.036a.622.622,0,0,1-.622-.622V86.369a.622.622,0,0,1,.622-.622H8.911a.622.622,0,0,1,.622.622v4.559Z" transform="translate(0 -85.333)" fill="#00ba40"/>
      </g>
    </g>
    <g id="Groupe_8524" transform="translate(0 86.576)">
      <g id="Groupe_8523" transform="translate(0 0)">
        <path id="Tracé_8872" d="M9.74,149.333H.207A.207.207,0,0,0,0,149.54v1.243a.207.207,0,0,0,.207.207H9.741a.207.207,0,0,0,.207-.207V149.54A.207.207,0,0,0,9.74,149.333Zm-.207,1.243H.414v-.829H9.533v.829Z" transform="translate(0 -149.333)" fill="#00ba40"/>
      </g>
    </g>
    <g id="Groupe_8526" transform="translate(1.243 89.478)">
      <g id="Groupe_8525">
        <path id="Tracé_8873" d="M66.694,298.667H64.207a.207.207,0,1,0,0,.414h2.487a.207.207,0,1,0,0-.414Z" transform="translate(-64 -298.667)" fill="#00ba40"/>
      </g>
    </g>
    <g id="Groupe_8528" transform="translate(1.243 90.307)">
      <g id="Groupe_8527">
        <path id="Tracé_8874" d="M66.694,341.333H64.207a.207.207,0,0,0,0,.415h2.487a.207.207,0,0,0,0-.415Z" transform="translate(-64 -341.333)" fill="#00ba40"/>
      </g>
    </g>
    <g id="Groupe_8530" transform="translate(7.046 89.063)">
      <g id="Groupe_8529">
        <path id="Tracé_8875" d="M363.7,277.333h-.415a.622.622,0,0,0-.622.622v.414a.622.622,0,0,0,.622.622h.415a.622.622,0,0,0,.622-.622v-.414A.622.622,0,0,0,363.7,277.333Zm.207,1.036a.207.207,0,0,1-.207.207h-.415a.207.207,0,0,1-.207-.207v-.414a.207.207,0,0,1,.207-.207h.415a.207.207,0,0,1,.207.207Z" transform="translate(-362.667 -277.333)" fill="#00ba40"/>
      </g>
    </g>
  </g>
</svg>
