<svg height="12.672" viewBox="0 0 11.063 12.672" width="11.063" xmlns="http://www.w3.org/2000/svg"><path d="m-343.089 7.672a1.913 1.913 0 0 1 -1.911-1.911v-4.123a1.913 1.913 0 0 1 1.911-1.911h.7v-1.874a2.889 2.889 0 0 1 2.92-2.853 2.888 2.888 0 0 1 2.917 2.853v1.874h.7a1.913 1.913 0 0 1 1.911 1.911v1.862a.4.4 0 0 1 -.4.4.4.4 0 0 1 -.4-.4v-1.862a1.108 1.108 0 0 0 -1.107-1.107h-7.241a1.108 1.108 0 0 0 -1.111 1.107v4.123a1.108 1.108 0 0 0 1.106 1.106h7.241a1.108 1.108 0 0 0 1.106-1.106.4.4 0 0 1 .4-.4.4.4 0 0 1 .4.4 1.913 1.913 0 0 1 -1.911 1.911zm3.62-11.867a2.083 2.083 0 0 0 -2.112 2.048v1.874h4.224v-1.874a2.083 2.083 0 0 0 -2.112-2.053z" fill="#454f63" transform="translate(345 5)"/></svg>