<svg height="7.124" viewBox="0 0 8.726 7.124" width="8.726" xmlns="http://www.w3.org/2000/svg"><g fill="#fff"><path d="m111.63-2097.809h2.326a.138.138 0 0 0 .146-.146v-1.308a.138.138 0 0 0 -.146-.146h-2.326a.137.137 0 0 0 -.145.146v1.308a.137.137 0 0 0 .145.146zm.145-1.309h2.035v1.018h-2.035z" transform="translate(-106.978 2102.752)"/><path d="m99.851-2100.863h1.163a.137.137 0 0 0 .145-.145.137.137 0 0 0 -.145-.146h-1.163a.138.138 0 0 0 -.146.146.137.137 0 0 0 .146.145z" transform="translate(-99.124 2103.916)"/><path d="m105.086-2100.863h1.163a.137.137 0 0 0 .145-.145.137.137 0 0 0 -.145-.146h-1.163a.137.137 0 0 0 -.145.146.137.137 0 0 0 .145.145z" transform="translate(-102.615 2103.916)"/><path d="m99.851-2099.117h1.89a.137.137 0 0 0 .145-.145.137.137 0 0 0 -.145-.146h-1.89a.138.138 0 0 0 -.146.146.137.137 0 0 0 .146.145z" transform="translate(-99.124 2102.752)"/><path d="m107.7-2099.408h-.436a.137.137 0 0 0 -.145.146.137.137 0 0 0 .145.145h.436a.137.137 0 0 0 .145-.145.137.137 0 0 0 -.145-.146z" transform="translate(-104.069 2102.752)"/><path d="m106.552-2107.9a.541.541 0 0 0 -.393-.218l-.349-.042v-.7a.583.583 0 0 0 -.581-.582h-6.687a.583.583 0 0 0 -.581.582v4.652a.584.584 0 0 0 .417.558.565.565 0 0 0 .514.576l6.717.756h.058a.582.582 0 0 0 .581-.494l.436-4.667a.567.567 0 0 0 -.132-.421zm-8.3-.523h7.269v.872h-7.27zm.291-.727h6.688a.291.291 0 0 1 .291.291v.146h-7.271v-.146a.291.291 0 0 1 .291-.293zm-.291 4.943v-3.053h7.269v3.053a.292.292 0 0 1 -.291.291h-6.688a.291.291 0 0 1 -.291-.293zm8.141-3.329-.436 4.667a.293.293 0 0 1 -.32.261l-6.7-.756a.3.3 0 0 1 -.262-.262h6.557a.583.583 0 0 0 .581-.582v-3.678l.334.029a.249.249 0 0 1 .189.1.3.3 0 0 1 .056.219z" transform="translate(-97.96 2109.443)"/></g></svg>