<svg xmlns="http://www.w3.org/2000/svg" width="17.993" height="13.693" viewBox="0 0 17.993 13.693">
  <g id="envelope" transform="translate(0 -57.75)">
    <g id="Groupe_8473" transform="translate(0 57.75)">
      <path id="Tracé_8842" d="M15.8,57.75H2.2A2.2,2.2,0,0,0,0,59.95v9.293a2.2,2.2,0,0,0,2.2,2.2H15.793a2.2,2.2,0,0,0,2.2-2.2V59.954A2.2,2.2,0,0,0,15.8,57.75Zm1.2,11.493a1.2,1.2,0,0,1-1.2,1.2H2.2a1.2,1.2,0,0,1-1.2-1.2V59.954a1.2,1.2,0,0,1,1.2-1.2H15.793a1.2,1.2,0,0,1,1.2,1.2v9.289Z" transform="translate(0 -57.75)" fill="#454f63"/>
      <path id="Tracé_8843" d="M65.025,113.729l4.4-3.946a.5.5,0,1,0-.674-.748l-6.069,5.447L61.5,113.424s-.007-.007-.007-.011a.745.745,0,0,0-.082-.071l-4.818-4.311a.5.5,0,1,0-.67.752l4.453,3.98-4.434,4.151a.5.5,0,0,0-.022.711.514.514,0,0,0,.369.16.5.5,0,0,0,.343-.134l4.5-4.211,1.221,1.091a.5.5,0,0,0,.67,0l1.255-1.124,4.475,4.252a.5.5,0,0,0,.711-.019.5.5,0,0,0-.019-.711Z" transform="translate(-53.677 -106.998)" fill="#454f63"/>
    </g>
  </g>
</svg>
