<svg xmlns="http://www.w3.org/2000/svg" width="15.32" height="16.639" viewBox="0 0 15.32 16.639">
  <path id="Tracé_8855" d="M25.66,14.639a2.7,2.7,0,0,1-2.676-2.385h-.948a.31.31,0,0,1,0-.619h9.782a.883.883,0,0,0,0-1.766H19.5a.883.883,0,1,0,0,1.766h1.552a.31.31,0,1,1,0,.619H19.5a1.5,1.5,0,0,1,0-3c.447,0,.688-.225.835-.775A10.566,10.566,0,0,0,20.5,6.142a11,11,0,0,1,.657-4.53A3.845,3.845,0,0,1,22.722-.118a4.746,4.746,0,0,1,1.423-.523A1.532,1.532,0,0,1,25.66-2,1.532,1.532,0,0,1,27.176-.641a4.7,4.7,0,0,1,1.484.56,3.88,3.88,0,0,1,1.554,1.81.31.31,0,1,1-.567.249A3.229,3.229,0,0,0,28.339.449,5.163,5.163,0,0,0,25.66-.165c-2,0-3.292.667-3.94,2.04a10.556,10.556,0,0,0-.6,4.269,10.9,10.9,0,0,1-.186,2.49,2.17,2.17,0,0,1-.261.616h9.97a2.17,2.17,0,0,1-.261-.616A10.886,10.886,0,0,1,30.2,6.147v0a14.787,14.787,0,0,0-.271-3.323.31.31,0,0,1,.6-.148,15.262,15.262,0,0,1,.289,3.468,10.579,10.579,0,0,0,.165,2.335c.146.55.388.775.834.775a1.5,1.5,0,1,1,0,3H28.336a2.7,2.7,0,0,1-2.676,2.385Zm-2.052-2.385a2.075,2.075,0,0,0,4.1,0ZM25.66-.784a8.3,8.3,0,0,1,.866.044.909.909,0,0,0-.866-.64.909.909,0,0,0-.866.64A8.31,8.31,0,0,1,25.66-.784Z" transform="translate(-18 2)" fill="#78849e"/>
</svg>
