<svg xmlns="http://www.w3.org/2000/svg" width="12.214" height="13.958" viewBox="0 0 12.214 13.958">
  <path id="Tracé_258" d="M6.488,12.869H2.181a1.092,1.092,0,0,1-1.09-1.09V7.307a1.092,1.092,0,0,1,1.09-1.09h7.852a1.092,1.092,0,0,1,1.09,1.09V8.4a.545.545,0,1,0,1.09,0V7.307a2.183,2.183,0,0,0-2.181-2.181H9.377V3.2A3.241,3.241,0,0,0,6.106,0,3.241,3.241,0,0,0,2.834,3.2V5.126H2.181A2.183,2.183,0,0,0,0,7.307v4.471a2.183,2.183,0,0,0,2.181,2.181H6.488a.545.545,0,1,0,0-1.09ZM3.925,3.2A2.15,2.15,0,0,1,6.106,1.091,2.15,2.15,0,0,1,8.287,3.2V5.126H3.925V3.2Z" transform="translate(0 -0.001)" fill="#acacab"/>
</svg>
