<svg height="13.693" viewBox="0 0 17.993 13.693" width="17.993" xmlns="http://www.w3.org/2000/svg"><g fill="#454f63"><path d="m15.8 57.75h-13.6a2.2 2.2 0 0 0 -2.2 2.2v9.293a2.2 2.2 0 0 0 2.2 2.2h13.593a2.2 2.2 0 0 0 2.2-2.2v-9.289a2.2 2.2 0 0 0 -2.193-2.204zm1.2 11.493a1.2 1.2 0 0 1 -1.2 1.2h-13.6a1.2 1.2 0 0 1 -1.2-1.2v-9.289a1.2 1.2 0 0 1 1.2-1.2h13.593a1.2 1.2 0 0 1 1.2 1.2v9.289z" transform="translate(0 -57.75)"/><path d="m65.025 113.729 4.4-3.946a.5.5 0 1 0 -.674-.748l-6.069 5.447-1.182-1.058s-.007-.007-.007-.011a.745.745 0 0 0 -.082-.071l-4.818-4.311a.5.5 0 1 0 -.67.752l4.453 3.98-4.434 4.151a.5.5 0 0 0 -.022.711.514.514 0 0 0 .369.16.5.5 0 0 0 .343-.134l4.5-4.211 1.221 1.091a.5.5 0 0 0 .67 0l1.255-1.124 4.475 4.252a.5.5 0 0 0 .711-.019.5.5 0 0 0 -.019-.711z" transform="translate(-53.677 -106.998)"/></g></svg>