<?xml version="1.0" encoding="UTF-8"?>
<svg width="21px" height="36px" viewBox="0 0 21 36" version="1.1" xmlns="http://www.w3.org/2000/svg" xmlns:xlink="http://www.w3.org/1999/xlink">
    <title>icon_default_pin</title>
    <g id="Page-1" stroke="none" stroke-width="1" fill="none" fill-rule="evenodd">
        <g id="icon_default_pin" fill="#72604A" fill-rule="nonzero">
            <path d="M7.875,22.285 L7.875,33.3 L9.423,35.622 C9.57985602,35.8548597 9.84223773,35.9944748 10.123,35.9944748 C10.4037623,35.9944748 10.666144,35.8548597 10.823,35.622 L12.375,33.3 L12.375,22.285 C10.8887169,22.571882 9.36128312,22.571882 7.875,22.285 L7.875,22.285 Z M10.125,0 C4.53311691,0 0,4.53311691 0,10.125 C0,15.7168831 4.53311691,20.25 10.125,20.25 C15.7168831,20.25 20.25,15.7168831 20.25,10.125 C20.25,4.53311691 15.7168831,0 10.125,0 Z M10.125,5.344 C7.48566899,5.34675591 5.34675591,7.48566899 5.344,10.125 C5.32834669,10.579553 4.95532241,10.9399526 4.5005,10.9399526 C4.04567759,10.9399526 3.67265331,10.579553 3.657,10.125 C3.660858,6.55386921 6.55486921,3.659858 10.126,3.656 C10.5921283,3.656 10.97,4.03387167 10.97,4.5 C10.97,4.96612833 10.5921283,5.344 10.126,5.344 L10.125,5.344 Z" id="Shape"></path>
        </g>
    </g>
</svg>